<svg xmlns="http://www.w3.org/2000/svg" version="1.1" xmlns:xlink="http://www.w3.org/1999/xlink" xmlns:svgjs="http://svgjs.dev/svgjs" width="1440" height="560" preserveAspectRatio="none" viewBox="0 0 1440 560">
    <g mask="url(&quot;#SvgjsMask1002&quot;)" fill="none">
        <rect width="1440" height="560" x="0" y="0" fill="url(&quot;#SvgjsLinearGradient1003&quot;)"></rect>
        <path d="M245.70760645290835 123.26712078246244L315.4427734684765 51.05424140059341 243.22989408660746-18.680925614974726 173.49472707103934 53.531953766894304z" fill="rgba(28, 83, 142, 0.4)" class="triangle-float3"></path>
        <path d="M750.986,578.737C784.353,579.808,817.343,567.112,835.649,539.195C855.85,508.388,863.778,467.708,844.291,436.445C825.582,406.432,786.349,402.852,750.986,403.374C716.838,403.878,679.459,409.583,662.332,439.13C645.17,468.738,656.898,505.156,675.243,534.045C692.086,560.569,719.582,577.729,750.986,578.737" fill="rgba(28, 83, 142, 0.4)" class="triangle-float3"></path>
        <path d="M816.4915369614271 305.3606697056986L682.3019010757268 259.1554726529663 770.2863399086947 439.5503055913989z" fill="rgba(28, 83, 142, 0.4)" class="triangle-float3"></path>
        <path d="M533.9246517851295 313.157216743316L501.4587956690705 206.9661862547751 395.26776518052964 239.43204237083413 427.73362129658864 345.623072859375z" fill="rgba(28, 83, 142, 0.4)" class="triangle-float1"></path>
        <path d="M1270.5550983684664 542.4339784628727L1359.7214369238404 456.49111880331054 1256.1944853444409 424.83975334760305z" fill="rgba(28, 83, 142, 0.4)" class="triangle-float2"></path>
        <path d="M754.576,469.769C770.777,468.632,782.651,455.892,790.177,441.5C797.077,428.304,798.657,412.69,791.146,399.832C783.697,387.081,769.334,381.095,754.576,380.56C738.648,379.983,722.089,383.838,713.107,397.004C702.97,411.862,700.211,431.564,709.117,447.191C718.096,462.946,736.487,471.039,754.576,469.769" fill="rgba(28, 83, 142, 0.4)" class="triangle-float1"></path>
    </g>
    <defs>
        <mask id="SvgjsMask1002">
            <rect width="1440" height="560" fill="#ffffff"></rect>
        </mask>
        <linearGradient x1="15.28%" y1="-39.29%" x2="84.72%" y2="139.29%" gradientUnits="userSpaceOnUse" id="SvgjsLinearGradient1003">
            <stop stop-color="#0e2a47" offset="0"></stop>
            <stop stop-color="rgba(0, 69, 158, 1)" offset="1"></stop>
        </linearGradient>
        <style>
            @keyframes float1 {
                    0%{transform: translate(0, 0)}
                    50%{transform: translate(-10px, 0)}
                    100%{transform: translate(0, 0)}
                }

                .triangle-float1 {
                    animation: float1 5s infinite;
                }

                @keyframes float2 {
                    0%{transform: translate(0, 0)}
                    50%{transform: translate(-5px, -5px)}
                    100%{transform: translate(0, 0)}
                }

                .triangle-float2 {
                    animation: float2 4s infinite;
                }

                @keyframes float3 {
                    0%{transform: translate(0, 0)}
                    50%{transform: translate(0, -10px)}
                    100%{transform: translate(0, 0)}
                }

                .triangle-float3 {
                    animation: float3 6s infinite;
                }
        </style>
    </defs>
</svg>